<?xml version="1.0" encoding="utf-8"?>
<!-- Generator: Adobe Illustrator 16.0.0, SVG Export Plug-In . SVG Version: 6.00 Build 0)  -->
<!DOCTYPE svg PUBLIC "-//W3C//DTD SVG 1.1//EN" "http://www.w3.org/Graphics/SVG/1.1/DTD/svg11.dtd">
<svg version="1.1" id="Layer_1" xmlns="http://www.w3.org/2000/svg" xmlns:xlink="http://www.w3.org/1999/xlink" x="0px" y="0px"
	 width="612px" height="792px" viewBox="0 0 612 792" enable-background="new 0 0 612 792" xml:space="preserve">
<g>
	<path fill="#FFFFFF" d="M303.476,328.929c2.658,0,4.762-0.746,6.35-2.238c1.568-1.53,2.353-3.595,2.353-6.196v-53.397
		c0-2.142-0.804-3.882-2.41-5.202s-3.71-1.97-6.292-1.97c-2.41,0-4.36,0.65-5.872,1.97c-1.492,1.32-2.257,3.06-2.257,5.202v53.397
		c0,2.677,0.727,4.743,2.123,6.235C298.847,328.202,300.855,328.929,303.476,328.929z"/>
	<path fill="#FFFFFF" d="M306,89.904c-169.008,0-306,136.992-306,306c0,168.988,136.992,306,306,306s306-137.012,306-306
		C612,226.896,475.008,89.904,306,89.904z M348.228,245.41h19.661v75.142c0,2.314,0.459,3.997,1.281,5.03
		c0.803,1.052,2.161,1.568,3.997,1.568c1.435,0,3.271-0.688,5.489-2.065c2.199-1.377,4.245-3.136,6.062-5.278V245.41h19.698v98.016
		h-19.698v-10.825c-3.596,3.978-7.383,7.038-11.322,9.104c-3.921,2.084-7.727,3.137-11.418,3.137c-4.59,0-7.994-1.473-10.289-4.38
		c-2.295-2.926-3.462-7.287-3.462-13.139V245.41z M275.075,267.824c-0.019-7.612,2.64-13.655,7.956-18.149
		c5.279-4.495,12.431-6.751,21.363-6.751c8.147,0,14.841,2.391,20.062,7.134c5.183,4.743,7.783,10.863,7.803,18.322v50.643
		c0,8.376-2.544,14.937-7.631,19.718c-5.145,4.762-12.145,7.153-21.114,7.153c-8.606,0-15.51-2.467-20.693-7.382
		c-5.145-4.934-7.746-11.551-7.746-19.89V267.824z M221.429,210.583l14.401,53.091h1.396l13.693-53.091h22.548l-25.799,77.724
		v55.118h-22.185v-52.632l-26.393-80.21H221.429z M441.386,566.768c-14.382,14.324-135.443,14.649-135.443,14.649
		s-121.061-0.306-135.462-14.649c-14.42-14.383-14.439-85.222-14.439-85.757c0-0.401,0.038-71.355,14.439-85.737
		c14.401-14.344,135.462-14.535,135.462-14.535c0-0.019,121.081,0.172,135.443,14.535c14.42,14.382,14.593,85.336,14.593,85.737
		C455.979,481.011,455.863,552.347,441.386,566.768z"/>
	<path fill="#FFFFFF" d="M430.9,496.356v-22.683c0-8.434-2.143-14.898-6.426-19.393c-4.304-4.494-10.462-6.751-18.476-6.751
		c-7.841,0-14.21,2.429-19.163,7.286c-4.934,4.858-7.439,11.169-7.439,18.857v39.952c0,8.587,2.295,15.319,6.771,20.177
		c4.494,4.896,10.69,7.325,18.513,7.325c8.702,0,15.262-2.295,19.622-6.885c4.418-4.647,6.579-11.514,6.579-20.636v-4.571h-17.978
		v4.055c0,5.259-0.612,8.625-1.76,10.155s-3.174,2.295-6.081,2.295c-2.793,0-4.743-0.88-5.929-2.696
		c-1.129-1.817-1.702-5.068-1.702-9.754v-16.734H430.9z M397.432,482.472v-8.989c0-3.729,0.593-6.406,1.798-7.975
		c1.224-1.664,3.231-2.448,6.005-2.448c2.658,0,4.628,0.784,5.795,2.448c1.224,1.568,1.855,4.246,1.855,7.975v8.989H397.432z"/>
	<path fill="#FFFFFF" d="M365.856,454.301c-2.907-3.768-7.134-5.661-12.681-5.661c-2.716,0-5.393,0.688-8.07,2.123
		c-2.64,1.396-5.126,3.48-7.497,6.177v-38.843h-17.672v120.603h17.672v-6.828c2.275,2.754,4.801,4.725,7.478,6.024
		c2.658,1.301,5.699,1.932,9.143,1.932c5.183,0,9.18-1.645,11.896-5.029c2.754-3.366,4.111-8.186,4.111-14.478v-49.381
		C370.235,463.652,368.801,458.087,365.856,454.301z M352.239,517.853c0,2.869-0.536,4.877-1.53,6.12
		c-0.994,1.281-2.562,1.894-4.705,1.894c-1.491,0-2.868-0.325-4.227-0.956c-1.357-0.612-2.754-1.722-4.169-3.137V466.33
		c1.186-1.224,2.391-2.142,3.614-2.716c1.205-0.593,2.448-0.86,3.711-0.86c2.352,0,4.188,0.765,5.45,2.313
		c1.224,1.55,1.855,3.845,1.855,6.828V517.853L352.239,517.853z"/>
	<path fill="#FFFFFF" d="M289.299,538.68v-9.772c-3.251,3.614-6.598,6.368-10.117,8.242c-3.5,1.913-6.885,2.831-10.155,2.831
		c-4.055,0-7.058-1.301-9.142-3.979c-2.008-2.658-3.06-6.598-3.06-11.914v-74.396h17.48v68.238c0,2.122,0.363,3.634,1.071,4.59
		c0.765,0.956,1.97,1.415,3.596,1.415c1.281,0,2.926-0.612,4.896-1.894c1.97-1.262,3.768-2.83,5.432-4.762v-67.588h17.461v88.988
		H289.299L289.299,538.68z"/>
	<polygon fill="#FFFFFF" points="228.749,435.615 228.749,538.68 209.012,538.68 209.012,435.615 188.625,435.615 188.625,418.097 
		249.136,418.097 249.136,435.615 	"/>
</g>
</svg>
